<?xml version="1.0" encoding="UTF-8"?>
<svg xmlns="http://www.w3.org/2000/svg" version="1.1" width="1276" height="1224" viewBox="0 0 1276 1224">
<g transform="translate(-272.867,-1239.925) scale(3.21729)">
<path d="M331.519,567.413c5.645.712,9.124,3.589,9.856,8.613.441,2.988.11,6.146-.201,9.214-.261,2.446-1.855,4.271-3.73,5.715-1.965,1.544-4.231,1.915-6.647,1.915h-95.36c-2.436,0-4.682-.371-6.657-1.915-1.865-1.444-3.459-3.269-3.73-5.715-.311-3.068-.632-6.226-.191-9.214.712-5.023,4.221-7.901,9.856-8.613-27.833-20.013-42.06-47.063-40.717-82.847h40.466c.02.02.04.03.06.05l19.271,16.313c.2.17.411.321.622.461-.07.251-.13.511-.181.772l-4.492,24.835c-.441,2.476.461,4.993,2.376,6.607l19.271,16.313c1.283,1.083,2.898,1.654,4.532,1.654.802,0,1.604-.13,2.376-.411l23.752-8.532c2.366-.852,4.091-2.888,4.532-5.364l4.492-24.835c.05-.261.08-.531.09-.802,1.063-.231,2.075-.712,2.958-1.444l20.634-17.225c2.266-1.895,3.108-4.993,2.116-7.76l-.231-.632h35.593c1.344,35.784-12.884,62.835-40.717,82.847Z" fill="#666"/>
<polygon points="234.956 452.11 230.474 476.945 203.594 476.795 195.061 453.032 215.695 435.797 234.956 452.11" fill="#4c3661"/>
<polygon points="330.266 487.563 309.632 504.788 290.361 488.485 291.073 484.565 294.843 463.64 321.734 463.811 329.193 484.565 330.266 487.563" fill="#4c3661"/>
<polygon points="268.975 413.208 264.483 438.043 240.731 446.585 221.461 430.273 225.942 405.428 249.705 396.895 268.975 413.208" fill="#ae425f"/>
<polygon points="286.571 462.186 282.521 484.565 282.08 487.032 258.327 495.564 245.323 484.565 239.057 479.261 243.538 454.416 267.301 445.884 286.571 462.186" fill="#7d2f44"/>
<polygon points="304.168 511.175 299.686 536.02 275.923 544.553 256.653 528.25 261.145 503.405 284.897 494.872 304.168 511.175" fill="#ae425f"/>
</g>
<g transform="translate(-1176.812,-745.440) scale(3.05963)" fill="#231f20">
<path d="M433.568,498.41l-19.897,31.533-3.374-.069-20.379-31.326v39.106h-4.475v-48.745h3.787l22.789,35.32,22.375-35.32h3.511v48.745h-4.337v-39.244Z"/>
<path d="M494.151,488.978v4.613h-40.414v16.455h30.775v4.682h-30.775v18.245h40.275v4.682h-44.613v-48.676h44.751Z"/>
<path d="M505.509,488.909h22.375c7.779,0,17.074,1.721,22.1,8.262,3.58,4.613,4.613,10.741,4.613,16.179,0,16.799-9.432,24.304-26.713,24.304h-22.375v-48.745ZM509.846,533.041h18.038c6.541,0,14.596-1.309,18.589-6.403,2.892-3.786,3.58-8.743,3.58-13.356,0-4.682-.688-9.639-3.58-13.357-3.993-5.164-12.048-6.403-18.589-6.403h-18.038v39.52Z"/>
<path d="M565.954,488.909h27.883c9.501,0,19.484,1.102,19.484,12.875v1.997c0,11.291-9.363,12.737-18.451,12.874l19.483,20.999h-6.265l-19.416-20.999h-18.382l.138,20.999h-4.475v-48.745ZM595.146,511.973c5.783,0,12.668-.413,13.562-6.472.138-.826.138-1.583.138-2.341v-1.377c0-4.2-1.997-6.196-4.888-7.229-1.446-.482-3.099-.757-4.889-.826-1.79-.207-3.58-.207-5.37-.207h-23.408v18.451h24.854Z"/>
<path d="M678.585,513.35c0,17.35-9.707,24.441-27.401,24.441s-27.333-6.953-27.333-24.441,9.708-24.441,27.333-24.441c17.831,0,27.401,6.885,27.401,24.441ZM628.326,513.35c0,14.94,7.711,19.828,22.857,19.828s22.927-5.025,22.927-19.828c0-15.078-7.711-19.828-22.927-19.828s-22.857,4.819-22.857,19.828Z"/>
<path d="M715.347,537.584c-17.557,0-27.332-6.953-27.332-24.303s9.775-24.373,27.332-24.373c7.504,0,18.313,1.515,22.857,8.262l.207.275-3.236,3.167-.344-.482c-3.719-5.439-12.875-6.609-19.484-6.609-15.078,0-22.857,4.75-22.857,19.76s7.779,19.69,22.857,19.69c6.609,0,15.766-1.102,19.484-6.609l.344-.481,3.236,3.166-.207.345c-4.544,6.679-15.354,8.192-22.857,8.192Z"/>
<path d="M800.853,488.909l-43.787,22.926,42.342,25.818h-8.056l-37.178-22.513v22.513h-4.337v-48.745h4.337v19.691l37.315-19.553c.068-.069.207-.069.275-.069h.207c.068-.069.275-.069.412-.069h8.469Z"/>
</g>
<g transform="translate(-978.343,-1061.954) scale(3.22670)">
<path d="M337.913,629.74h9.785c3.402,0,7.466.752,9.664,3.612,1.566,2.018,2.017,4.696,2.017,7.075,0,7.346-4.125,10.627-11.681,10.627h-9.785v-21.314ZM339.81,649.038h7.888c2.86,0,6.382-.572,8.128-2.8,1.264-1.656,1.565-3.824,1.565-5.841,0-2.047-.301-4.215-1.565-5.841-1.746-2.258-5.269-2.8-8.128-2.8h-7.888v17.281Z" fill="#818284"/>
<path d="M389.208,629.771v2.017h-17.672v7.195h13.457v2.047h-13.457v7.979h17.612v2.047h-19.509v-21.284h19.569Z" fill="#818284"/>
<path d="M399.469,629.74h12.193c4.155,0,8.52.481,8.52,5.63v.873c0,4.937-4.094,5.569-8.068,5.629l8.52,9.183h-2.74l-8.49-9.183h-8.038l.06,9.183h-1.957v-21.314ZM412.234,639.825c2.529,0,5.539-.181,5.931-2.83.06-.361.06-.692.06-1.023v-.602c0-1.837-.873-2.71-2.137-3.161-.632-.211-1.355-.332-2.138-.361-.783-.091-1.565-.091-2.348-.091h-10.236v8.068h10.868Z" fill="#818284"/>
<path d="M451.969,633.895l-8.7,13.788-1.476-.03-8.911-13.697v17.1h-1.957v-21.314h1.656l9.965,15.444,9.784-15.444h1.536v21.314h-1.897v-17.16Z" fill="#818284"/>
<path d="M486.255,651.055l-4.576-8.038-10.688.03-4.576,8.008h-2.228l12.133-21.284,12.193,21.284h-2.258ZM472.075,641.12l8.52-.03-4.275-7.466-4.245,7.496Z" fill="#818284"/>
<path d="M489.984,629.74h21.165v2.017h-9.634v19.298h-1.927l.03-19.298h-9.634v-2.017Z" fill="#818284"/>
<path d="M539.925,640.428c0,7.586-4.245,10.688-11.981,10.688s-11.952-3.041-11.952-10.688,4.245-10.688,11.952-10.688c7.797,0,11.981,3.01,11.981,10.688ZM517.948,640.428c0,6.532,3.371,8.67,9.995,8.67s10.024-2.197,10.024-8.67c0-6.594-3.371-8.671-10.024-8.671s-9.995,2.107-9.995,8.671Z" fill="#818284"/>
<path d="M552.083,629.74v19.268h17.611v2.047h-19.508v-21.314h1.896Z" fill="#818284"/>
<path d="M599.736,640.428c0,7.586-4.245,10.688-11.982,10.688s-11.951-3.041-11.951-10.688,4.244-10.688,11.951-10.688c7.798,0,11.982,3.01,11.982,10.688ZM577.76,640.428c0,6.532,3.371,8.67,9.994,8.67s10.025-2.197,10.025-8.67c0-6.594-3.371-8.671-10.025-8.671s-9.994,2.107-9.994,8.671Z" fill="#818284"/>
<path d="M621.107,651.024c-7.707,0-11.952-3.04-11.952-10.657s4.305-10.627,11.952-10.627c3.281,0,8.008.662,9.994,3.612l.091.12-1.415,1.385-.15-.21c-1.626-2.379-5.63-2.891-8.52-2.891-6.594,0-9.995,2.077-9.995,8.641s3.401,8.61,9.995,8.61c2.739,0,6.021-.361,7.947-2.229v-5.75h-12.854v-2.047h14.992v8.309l-.091.151c-1.986,2.92-6.713,3.582-9.994,3.582Z" fill="#818284"/>
<path d="M641.484,629.74h2.619l8.64,9.212,8.61-9.212h2.59l-10.327,11.049v10.266h-1.866v-10.296l-10.266-11.019Z" fill="#818284"/>
</g>
<g transform="translate(217.033,1152.758) scale(0.09294)" fill="#231f20"><path d="M147 5L147 5Q135 5 129 2.500Q123 0 123-6L123-6Q123-13 133-16Q143-19 160-22L160-22Q197-29 221.500-47.500Q246-66 256-102L256-102L378-530Q392-581 390-597.500Q388-614 375-614L375-614L292-614Q243-614 216.500-594.500Q190-575 172-553L172-553Q163-543 155.500-531.500Q148-520 141.500-512Q135-504 129-504L129-504Q123-504 120.500-506.500Q118-509 118-517L118-517Q118-519 120-527Q122-535 128-548L128-548Q138-568 150.500-594Q163-620 170-646L170-646Q172-653 177.500-659.500Q183-666 187-666L187-666Q191-666 196-662.500Q201-659 205-654L205-654Q208-651 214-648Q220-645 235-643.500Q250-642 281-642L281-642L638-642Q669-642 684.500-644Q700-646 707-649Q714-652 717-655L717-655Q722-660 726-663Q730-666 734-666L734-666Q744-666 744-655L744-655Q744-648 740.500-640Q737-632 734-627L734-627Q729-617 718-584.500Q707-552 699-511L699-511Q698-503 695-500Q692-497 688-497L688-497Q681-497 677.500-503.500Q674-510 674-520L674-520Q674-566 659.500-590Q645-614 607-614L607-614L507-614Q494-614 485.500-608Q477-602 469.500-583.500Q462-565 451-527L451-527L330-102Q320-66 333.500-47.500Q347-29 380-22L380-22Q395-19 400-16Q405-13 405-6L405-6Q405 0 396 2.500Q387 5 375 5L375 5Q350 5 334 3.500Q318 2 303.500 1Q289 0 268 0L268 0Q245 0 227 1Q209 2 190.500 3.500Q172 5 147 5ZM678 18L678 18Q673 18 669 14Q665 10 663 4Q661-2 661-8L661-8Q661-23 664.500-38Q668-53 674-75L674-75L815-558Q820-575 825-595.500Q830-616 830-626L830-626Q830-636 817.500-641Q805-646 793-650L793-650Q786-652 780.500-654.500Q775-657 775-661L775-661Q775-665 778-668.500Q781-672 792-676L792-676Q800-679 814.500-684Q829-689 845.500-694.500Q862-700 875.500-703.500Q889-707 894-707L894-707Q899-707 905-706Q911-705 911-697L911-697Q911-689 909.500-683Q908-677 906-670L906-670L770-200Q768-193 770.500-193Q773-193 776-197L776-197Q820-262 867-312.500Q914-363 956-392Q998-421 1028-421L1028-421Q1061-421 1078.500-399Q1096-377 1096-348L1096-348Q1096-297 1077.500-240Q1059-183 1029-131Q999-79 964-42L964-42Q958-36 946-26.500Q934-17 918-8Q902 1 885.500 7.500Q869 14 855 14L855 14Q848 14 838.500 8Q829 2 822.500-7Q816-16 816-23L816-23Q816-28 820-35Q824-42 830-47Q836-52 842-52L842-52Q851-52 857.500-48.500Q864-45 869-40L869-40Q875-35 881-31Q887-27 895-27L895-27Q912-27 931-47Q950-67 967.500-100Q985-133 999-172.500Q1013-212 1021.500-252Q1030-292 1030-326L1030-326Q1030-349 1020.500-361.500Q1011-374 992-374L992-374Q970-374 942.500-352.500Q915-331 885.500-296Q856-261 828-221Q800-181 777-143Q754-105 740-78L740-78Q715-30 702.500-6Q690 18 678 18ZM1216 15L1216 15Q1195 15 1173.500-1Q1152-17 1138-41.500Q1124-66 1124-89L1124-89Q1124-139 1144.500-195.500Q1165-252 1201-301.500Q1237-351 1284.500-382.500Q1332-414 1385-414L1385-414Q1420-414 1439.500-399.500Q1459-385 1459-359L1459-359Q1459-328 1439.500-305Q1420-282 1387-265.500Q1354-249 1313.500-238Q1273-227 1231-219L1231-219Q1225-218 1221.500-216.500Q1218-215 1216-209L1216-209Q1209-187 1202-161Q1195-135 1195-112L1195-112Q1195-77 1208.500-58Q1222-39 1248-39L1248-39Q1284-39 1309-57Q1334-75 1350-93L1350-93Q1360-104 1368-104L1368-104Q1378-104 1378-94L1378-94Q1378-93 1378-90.500Q1378-88 1376-86L1376-86Q1356-53 1331-30.500Q1306-8 1277.500 3.500Q1249 15 1216 15ZM1238-242L1238-242Q1249-242 1275.500-248.500Q1302-255 1331-269.500Q1360-284 1380.500-305.500Q1401-327 1401-357L1401-357Q1401-370 1394-379.500Q1387-389 1374-389L1374-389Q1353-389 1328.500-371.500Q1304-354 1282-329.500Q1260-305 1245.500-282Q1231-259 1231-248L1231-248Q1231-242 1238-242ZM1833 15L1833 15Q1808 15 1782 10.500Q1756 6 1730-4L1730-4Q1717-9 1708.500-12.500Q1700-16 1697-16L1697-16Q1692-16 1686.500-14Q1681-12 1676-10L1676-10Q1670-6 1665-3Q1660 0 1656 0L1656 0Q1652 0 1644.500-6.500Q1637-13 1637-19L1637-19Q1637-25 1646-46Q1655-67 1666.500-99.500Q1678-132 1683-171L1683-171Q1686-191 1699-191L1699-191Q1707-191 1709-181.500Q1711-172 1711-152L1711-152Q1711-114 1723.500-82.500Q1736-51 1762.500-33Q1789-15 1830-15L1830-15Q1894-15 1938.500-51.500Q1983-88 1983-155L1983-155Q1983-181 1975.500-203Q1968-225 1950-248.500Q1932-272 1900-302L1900-302Q1857-341 1826.500-383Q1796-425 1796-482L1796-482Q1796-535 1823.500-576Q1851-617 1898.500-640.500Q1946-664 2005-664L2005-664Q2021-664 2039-660.500Q2057-657 2074-652L2074-652Q2094-646 2107.500-640.500Q2121-635 2128-635L2128-635Q2139-635 2147-640L2147-640Q2151-642 2155-643.500Q2159-645 2164-645L2164-645Q2172-645 2174-639Q2176-633 2176-629L2176-629Q2176-628 2169.500-616.500Q2163-605 2154.500-577.500Q2146-550 2138-498L2138-498Q2136-483 2130.500-474.500Q2125-466 2122-466L2122-466Q2115-466 2112.500-473.500Q2110-481 2110-492L2110-492Q2110-562 2078-598.500Q2046-635 1993-635L1993-635Q1958-635 1928.500-616Q1899-597 1882-567.500Q1865-538 1865-506L1865-506Q1865-480 1874-455.500Q1883-431 1903.500-405.500Q1924-380 1958-348L1958-348Q2009-302 2034.500-264Q2060-226 2060-184L2060-184Q2060-129 2034-84Q2008-39 1957.500-12Q1907 15 1833 15ZM2217 15L2217 15Q2199 15 2179.500 1.500Q2160-12 2146.500-35.500Q2133-59 2133-90L2133-90Q2134-126 2145-169.500Q2156-213 2177-256Q2198-299 2229.500-335Q2261-371 2302-392.500Q2343-414 2394-414L2394-414Q2421-414 2435-404.500Q2449-395 2449-382L2449-382Q2449-366 2439.500-349.500Q2430-333 2419-333L2419-333Q2411-333 2405.500-340Q2400-347 2395-357L2395-357Q2389-368 2380-377.500Q2371-387 2354-387L2354-387Q2330-387 2304-358Q2278-329 2255.500-284Q2233-239 2219-189Q2205-139 2205-98L2205-98Q2205-65 2218-53Q2231-41 2253-41L2253-41Q2285-41 2304-53.500Q2323-66 2342-84L2342-84Q2349-91 2352.500-94Q2356-97 2362-97L2362-97Q2370-97 2370-84L2370-84Q2370-76 2357.500-60Q2345-44 2323.500-26.500Q2302-9 2274.500 3Q2247 15 2217 15ZM2497 14L2497 14Q2480 14 2469 3Q2458-8 2458-20L2458-20Q2458-24 2458.500-28Q2459-32 2461-36L2461-36Q2502-119 2530-192.500Q2558-266 2580-321L2580-321Q2584-333 2575-333L2575-333Q2570-333 2555.500-327.500Q2541-322 2525-313Q2509-304 2497-295L2497-295Q2492-291 2487-293Q2482-295 2482-300L2482-300Q2482-305 2489.500-314.500Q2497-324 2510.500-336Q2524-348 2543-361.500Q2562-375 2584.500-388.500Q2607-402 2632-413L2632-413Q2641-417 2650-411Q2659-405 2664.500-396Q2670-387 2668-382L2668-382L2546-93Q2542-85 2540.500-77.500Q2539-70 2539-64L2539-64Q2539-57 2544.500-54.500Q2550-52 2555-52L2555-52Q2569-52 2587-65.500Q2605-79 2625.500-98.500Q2646-118 2665-137L2665-137Q2667-139 2669-139L2669-139Q2671-139 2673-137.500Q2675-136 2675-134L2675-134Q2675-118 2656-93.500Q2637-69 2608.500-44.500Q2580-20 2550-3Q2520 14 2497 14ZM2699-513L2699-513Q2684-513 2674-525Q2664-537 2664-552L2664-552Q2664-576 2680-594.500Q2696-613 2720-613L2720-613Q2736-613 2745-599.500Q2754-586 2754-570L2754-570Q2754-548 2738-530.500Q2722-513 2699-513ZM2831 15L2831 15Q2810 15 2788.500-1Q2767-17 2753-41.500Q2739-66 2739-89L2739-89Q2739-139 2759.500-195.500Q2780-252 2816-301.500Q2852-351 2899.500-382.500Q2947-414 3000-414L3000-414Q3035-414 3054.500-399.500Q3074-385 3074-359L3074-359Q3074-328 3054.500-305Q3035-282 3002-265.500Q2969-249 2928.500-238Q2888-227 2846-219L2846-219Q2840-218 2836.500-216.500Q2833-215 2831-209L2831-209Q2824-187 2817-161Q2810-135 2810-112L2810-112Q2810-77 2823.500-58Q2837-39 2863-39L2863-39Q2899-39 2924-57Q2949-75 2965-93L2965-93Q2975-104 2983-104L2983-104Q2993-104 2993-94L2993-94Q2993-93 2993-90.500Q2993-88 2991-86L2991-86Q2971-53 2946-30.500Q2921-8 2892.500 3.500Q2864 15 2831 15ZM2853-242L2853-242Q2864-242 2890.500-248.500Q2917-255 2946-269.500Q2975-284 2995.500-305.500Q3016-327 3016-357L3016-357Q3016-370 3009-379.500Q3002-389 2989-389L2989-389Q2968-389 2943.500-371.500Q2919-354 2897-329.500Q2875-305 2860.500-282Q2846-259 2846-248L2846-248Q2846-242 2853-242ZM3129 16L3129 16Q3123 16 3117.500 11.500Q3112 7 3108 0.500Q3104-6 3102.500-14Q3101-22 3104-28L3104-28L3220-312Q3238-356 3222-356L3222-356Q3212-356 3201-353.500Q3190-351 3177-341Q3164-331 3148-310L3148-310Q3144-306 3139.500-306.500Q3135-307 3133-314L3133-314Q3133-320 3136.500-329.500Q3140-339 3145-348.500Q3150-358 3154-364L3154-364Q3169-387 3194.500-400Q3220-413 3254-414L3254-414Q3265-414 3274-408.500Q3283-403 3287.500-393Q3292-383 3287-371L3287-371L3221-201Q3218-194 3222.500-193Q3227-192 3230-197L3230-197Q3271-267 3313.500-315.500Q3356-364 3395-389Q3434-414 3464-414L3464-414Q3485-414 3500.500-399.500Q3516-385 3520.500-360.500Q3525-336 3511-304L3511-304L3419-86Q3404-50 3424-50L3424-50Q3436-50 3453.500-59Q3471-68 3489-80.500Q3507-93 3520.500-103.500Q3534-114 3538-118L3538-118Q3539-119 3539.500-119Q3540-119 3541-119L3541-119Q3544-119 3546.500-116.500Q3549-114 3549-110L3549-110Q3549-102 3545-96L3545-96Q3519-65 3489.500-40Q3460-15 3428.500-0.500Q3397 14 3365 14L3365 14Q3356 14 3347 7.500Q3338 1 3333.500-9Q3329-19 3334-30L3334-30Q3363-97 3392.500-163.500Q3422-230 3448-297L3448-297Q3464-338 3459-354.500Q3454-371 3440-372L3440-372Q3429-373 3414-364.500Q3399-356 3380-338.500Q3361-321 3339-294L3339-294Q3327-280 3307-250.500Q3287-221 3262-182.500Q3237-144 3210.500-100.500Q3184-57 3160-15L3160-15Q3151 1 3144 8.500Q3137 16 3129 16ZM3692 15L3692 15Q3674 15 3654.500 1.500Q3635-12 3621.500-35.500Q3608-59 3608-90L3608-90Q3609-126 3620-169.500Q3631-213 3652-256Q3673-299 3704.500-335Q3736-371 3777-392.500Q3818-414 3869-414L3869-414Q3896-414 3910-404.500Q3924-395 3924-382L3924-382Q3924-366 3914.500-349.500Q3905-333 3894-333L3894-333Q3886-333 3880.500-340Q3875-347 3870-357L3870-357Q3864-368 3855-377.500Q3846-387 3829-387L3829-387Q3805-387 3779-358Q3753-329 3730.500-284Q3708-239 3694-189Q3680-139 3680-98L3680-98Q3680-65 3693-53Q3706-41 3728-41L3728-41Q3760-41 3779-53.500Q3798-66 3817-84L3817-84Q3824-91 3827.500-94Q3831-97 3837-97L3837-97Q3845-97 3845-84L3845-84Q3845-76 3832.500-60Q3820-44 3798.500-26.500Q3777-9 3749.500 3Q3722 15 3692 15ZM4012 15L4012 15Q3991 15 3969.500-1Q3948-17 3934-41.500Q3920-66 3920-89L3920-89Q3920-139 3940.500-195.500Q3961-252 3997-301.500Q4033-351 4080.500-382.500Q4128-414 4181-414L4181-414Q4216-414 4235.500-399.500Q4255-385 4255-359L4255-359Q4255-328 4235.500-305Q4216-282 4183-265.500Q4150-249 4109.500-238Q4069-227 4027-219L4027-219Q4021-218 4017.500-216.500Q4014-215 4012-209L4012-209Q4005-187 3998-161Q3991-135 3991-112L3991-112Q3991-77 4004.500-58Q4018-39 4044-39L4044-39Q4080-39 4105-57Q4130-75 4146-93L4146-93Q4156-104 4164-104L4164-104Q4174-104 4174-94L4174-94Q4174-93 4174-90.500Q4174-88 4172-86L4172-86Q4152-53 4127-30.500Q4102-8 4073.500 3.500Q4045 15 4012 15ZM4034-242L4034-242Q4045-242 4071.500-248.500Q4098-255 4127-269.500Q4156-284 4176.500-305.500Q4197-327 4197-357L4197-357Q4197-370 4190-379.500Q4183-389 4170-389L4170-389Q4149-389 4124.500-371.500Q4100-354 4078-329.500Q4056-305 4041.500-282Q4027-259 4027-248L4027-248Q4027-242 4034-242ZM4555 14L4555 14Q4531 14 4510-2Q4489-18 4476.500-44Q4464-70 4464-99L4464-99Q4464-146 4482.500-200.500Q4501-255 4534-303.500Q4567-352 4610.500-383Q4654-414 4704-414L4704-414Q4754-414 4781.500-380Q4809-346 4809-296L4809-296Q4809-251 4791-197.500Q4773-144 4739.500-96Q4706-48 4659.500-17Q4613 14 4555 14ZM4571-16L4571-16Q4595-16 4619.500-37Q4644-58 4666.500-92Q4689-126 4706.500-167Q4724-208 4734.500-249Q4745-290 4745-324L4745-324Q4745-350 4736.500-367Q4728-384 4702-384L4702-384Q4679-384 4654.500-365Q4630-346 4607.500-314Q4585-282 4567-242.500Q4549-203 4538.500-160.500Q4528-118 4528-78L4528-78Q4528-45 4539.500-30.500Q4551-16 4571-16ZM4716 290L4716 290Q4679 290 4656 277.500Q4633 265 4633 240L4633 240Q4633 225 4647.500 211.500Q4662 198 4672 198L4672 198Q4680 198 4687 206.500Q4694 215 4704 226L4704 226Q4713 236 4725.500 243Q4738 250 4756 250L4756 250Q4775 250 4789 239Q4803 228 4816.500 199Q4830 170 4846 115L4846 115L4980-339Q4986-357 4966-357L4966-357L4904-356Q4897-356 4894-359.500Q4891-363 4891-368L4891-368Q4891-376 4897-384.500Q4903-393 4910-394L4910-394L4980-398Q4994-400 4999-418L4999-418L5007-450Q5031-545 5071.500-601Q5112-657 5156.500-681.500Q5201-706 5236-706L5236-706Q5280-706 5305-686.500Q5330-667 5330-636L5330-636Q5330-611 5316.500-598Q5303-585 5289-585L5289-585Q5282-585 5276-596.500Q5270-608 5262-624L5262-624Q5253-644 5239-654.500Q5225-665 5203-665L5203-665Q5175-665 5155.500-652Q5136-639 5120-604Q5104-569 5084-503L5084-503Q5078-484 5073.500-466.500Q5069-449 5063-429L5063-429Q5061-422 5059.500-418Q5058-414 5058-409L5058-409Q5058-404 5061-402Q5064-400 5068-400L5068-400Q5098-400 5125.500-401.500Q5153-403 5178-403L5178-403Q5185-403 5185-392L5185-392Q5185-388 5181.500-381Q5178-374 5171.500-368.500Q5165-363 5156-363L5156-363L5065-362Q5055-362 5048.500-358.500Q5042-355 5040-346L5040-346Q5005-233 4972-118Q4939-3 4910 110L4910 110Q4900 150 4876.500 183Q4853 216 4823.500 240Q4794 264 4765.500 277Q4737 290 4716 290ZM5530 15L5530 15Q5505 15 5479 10.500Q5453 6 5427-4L5427-4Q5414-9 5405.500-12.500Q5397-16 5394-16L5394-16Q5389-16 5383.500-14Q5378-12 5373-10L5373-10Q5367-6 5362-3Q5357 0 5353 0L5353 0Q5349 0 5341.500-6.500Q5334-13 5334-19L5334-19Q5334-25 5343-46Q5352-67 5363.500-99.500Q5375-132 5380-171L5380-171Q5383-191 5396-191L5396-191Q5404-191 5406-181.500Q5408-172 5408-152L5408-152Q5408-114 5420.500-82.500Q5433-51 5459.500-33Q5486-15 5527-15L5527-15Q5591-15 5635.500-51.500Q5680-88 5680-155L5680-155Q5680-181 5672.500-203Q5665-225 5647-248.500Q5629-272 5597-302L5597-302Q5554-341 5523.500-383Q5493-425 5493-482L5493-482Q5493-535 5520.500-576Q5548-617 5595.500-640.500Q5643-664 5702-664L5702-664Q5718-664 5736-660.500Q5754-657 5771-652L5771-652Q5791-646 5804.500-640.500Q5818-635 5825-635L5825-635Q5836-635 5844-640L5844-640Q5848-642 5852-643.500Q5856-645 5861-645L5861-645Q5869-645 5871-639Q5873-633 5873-629L5873-629Q5873-628 5866.500-616.500Q5860-605 5851.500-577.500Q5843-550 5835-498L5835-498Q5833-483 5827.500-474.500Q5822-466 5819-466L5819-466Q5812-466 5809.500-473.500Q5807-481 5807-492L5807-492Q5807-562 5775-598.500Q5743-635 5690-635L5690-635Q5655-635 5625.500-616Q5596-597 5579-567.500Q5562-538 5562-506L5562-506Q5562-480 5571-455.500Q5580-431 5600.500-405.500Q5621-380 5655-348L5655-348Q5706-302 5731.500-264Q5757-226 5757-184L5757-184Q5757-129 5731-84Q5705-39 5654.500-12Q5604 15 5530 15ZM6104 21L6104 21Q6080 21 6066 8.500Q6052-4 6041-28L6041-28L6003-134Q5997-151 5985.500-164.500Q5974-178 5957-178L5957-178Q5950-178 5942.500-162.500Q5935-147 5930-136L5930-136Q5927-129 5920.500-112.500Q5914-96 5906-76Q5898-56 5892-39.500Q5886-23 5883-16L5883-16Q5877 0 5873 7.500Q5869 15 5857 15L5857 15Q5850 15 5840.500 8.500Q5831 2 5831-7L5831-7Q5831-12 5833-23Q5835-34 5839-49L5839-49L6006-567Q6012-586 6014-599Q6016-612 6016-624L6016-624Q6016-636 5994-644L5994-644Q5984-648 5976-651.500Q5968-655 5968-658L5968-658Q5968-662 5969.500-665Q5971-668 5974-669L5974-669Q5985-675 6001.500-681Q6018-687 6035.500-693Q6053-699 6067-702.500Q6081-706 6087-706L6087-706Q6092-706 6097.500-705Q6103-704 6103-696L6103-696Q6103-688 6102.500-684Q6102-680 6100-673L6100-673L5965-262Q5961-251 5965.500-252Q5970-253 5974-258L5974-258Q6008-306 6046.500-341Q6085-376 6124-395.500Q6163-415 6196-415L6196-415Q6216-415 6235.500-404Q6255-393 6255-370L6255-370Q6255-344 6233-315Q6211-286 6178.500-260Q6146-234 6111.500-214.500Q6077-195 6051-188L6051-188Q6042-186 6046-177L6046-177L6092-68Q6097-58 6105.500-48.500Q6114-39 6125-39L6125-39Q6144-39 6163-57Q6182-75 6195-97L6195-97Q6200-106 6203.500-108Q6207-110 6211-110L6211-110Q6213-110 6215-106Q6217-102 6217-98L6217-98Q6217-82 6204-62Q6191-42 6172-23Q6153-4 6134.500 8.500Q6116 21 6104 21ZM5999-203L5999-203Q6030-203 6062.500-218Q6095-233 6123-255Q6151-277 6168-300.500Q6185-324 6185-340L6185-340Q6185-355 6176-363.500Q6167-372 6149-372L6149-372Q6128-372 6100.500-353Q6073-334 6047-306.500Q6021-279 6004-255Q5987-231 5987-220L5987-220Q5987-214 5990-208.500Q5993-203 5999-203ZM6336 14L6336 14Q6319 14 6308 3Q6297-8 6297-20L6297-20Q6297-24 6297.500-28Q6298-32 6300-36L6300-36Q6341-119 6369-192.500Q6397-266 6419-321L6419-321Q6423-333 6414-333L6414-333Q6409-333 6394.500-327.500Q6380-322 6364-313Q6348-304 6336-295L6336-295Q6331-291 6326-293Q6321-295 6321-300L6321-300Q6321-305 6328.500-314.500Q6336-324 6349.500-336Q6363-348 6382-361.500Q6401-375 6423.500-388.500Q6446-402 6471-413L6471-413Q6480-417 6489-411Q6498-405 6503.500-396Q6509-387 6507-382L6507-382L6385-93Q6381-85 6379.500-77.500Q6378-70 6378-64L6378-64Q6378-57 6383.500-54.500Q6389-52 6394-52L6394-52Q6408-52 6426-65.500Q6444-79 6464.500-98.500Q6485-118 6504-137L6504-137Q6506-139 6508-139L6508-139Q6510-139 6512-137.500Q6514-136 6514-134L6514-134Q6514-118 6495-93.500Q6476-69 6447.500-44.500Q6419-20 6389-3Q6359 14 6336 14ZM6538-513L6538-513Q6523-513 6513-525Q6503-537 6503-552L6503-552Q6503-576 6519-594.500Q6535-613 6559-613L6559-613Q6575-613 6584-599.500Q6593-586 6593-570L6593-570Q6593-548 6577-530.500Q6561-513 6538-513ZM6627 16L6627 16Q6621 16 6615.500 11.500Q6610 7 6606 0.500Q6602-6 6600.500-14Q6599-22 6602-28L6602-28L6718-312Q6736-356 6720-356L6720-356Q6710-356 6699-353.500Q6688-351 6675-341Q6662-331 6646-310L6646-310Q6642-306 6637.500-306.500Q6633-307 6631-314L6631-314Q6631-320 6634.500-329.500Q6638-339 6643-348.500Q6648-358 6652-364L6652-364Q6667-387 6692.500-400Q6718-413 6752-414L6752-414Q6763-414 6772-408.500Q6781-403 6785.500-393Q6790-383 6785-371L6785-371L6719-201Q6716-194 6720.500-193Q6725-192 6728-197L6728-197Q6769-267 6811.500-315.500Q6854-364 6893-389Q6932-414 6962-414L6962-414Q6983-414 6998.500-399.500Q7014-385 7018.500-360.500Q7023-336 7009-304L7009-304L6917-86Q6902-50 6922-50L6922-50Q6934-50 6951.500-59Q6969-68 6987-80.500Q7005-93 7018.500-103.500Q7032-114 7036-118L7036-118Q7037-119 7037.500-119Q7038-119 7039-119L7039-119Q7042-119 7044.500-116.500Q7047-114 7047-110L7047-110Q7047-102 7043-96L7043-96Q7017-65 6987.500-40Q6958-15 6926.500-0.500Q6895 14 6863 14L6863 14Q6854 14 6845 7.500Q6836 1 6831.500-9Q6827-19 6832-30L6832-30Q6861-97 6890.500-163.500Q6920-230 6946-297L6946-297Q6962-338 6957-354.500Q6952-371 6938-372L6938-372Q6927-373 6912-364.500Q6897-356 6878-338.500Q6859-321 6837-294L6837-294Q6825-280 6805-250.500Q6785-221 6760-182.500Q6735-144 6708.500-100.500Q6682-57 6658-15L6658-15Q6649 1 6642 8.500Q6635 16 6627 16ZM7421 14L7421 14Q7380 14 7336-3.500Q7292-21 7254-54.500Q7216-88 7192.500-135Q7169-182 7169-240L7169-240Q7169-330 7201.500-407Q7234-484 7291-542Q7348-600 7421.500-632.500Q7495-665 7576-665L7576-665Q7604-665 7631.500-660.500Q7659-656 7687-646L7687-646Q7706-640 7720-635Q7734-630 7744-630L7744-630Q7749-630 7754-632.500Q7759-635 7765-638L7765-638Q7771-640 7777-642.500Q7783-645 7788-645L7788-645Q7797-645 7797.500-639Q7798-633 7795-629L7795-629Q7784-614 7770-589Q7756-564 7744.500-537Q7733-510 7728-487L7728-487Q7727-480 7721-473.500Q7715-467 7710-467L7710-467Q7701-467 7697.500-475.500Q7694-484 7695-493L7695-493Q7700-516 7698.500-539.500Q7697-563 7680-585L7680-585Q7663-607 7635.500-620.500Q7608-634 7573-634L7573-634Q7530-634 7485-614Q7440-594 7399.500-557.500Q7359-521 7326.500-471Q7294-421 7275.500-360.500Q7257-300 7257-232L7257-232Q7257-171 7274.500-130Q7292-89 7320.500-64Q7349-39 7382.500-28Q7416-17 7448-17L7448-17Q7499-17 7531-33.500Q7563-50 7585-77.500Q7607-105 7627-139L7627-139Q7632-147 7637-152.500Q7642-158 7650-158L7650-158Q7655-158 7656-153Q7657-148 7657-138L7657-138Q7657-131 7648-107.500Q7639-84 7626-57Q7613-30 7601.500-10.500Q7590 9 7585 9L7585 9Q7581 9 7576 5.500Q7571 2 7566-2L7566-2Q7562-6 7556.500-8.500Q7551-11 7545-11L7545-11Q7538-11 7528-8Q7518-5 7504 0L7504 0Q7489 5 7468 9.500Q7447 14 7421 14ZM7767 14L7767 14Q7755 14 7743 7.500Q7731 1 7723.500-9Q7716-19 7716-30L7716-30Q7716-66 7740-113.500Q7764-161 7807-213.500Q7850-266 7906-315L7906-315Q7960-362 7994-385.500Q8028-409 8044-409L8044-409Q8060-409 8072-395L8072-395Q8086-377 8084.500-378.500Q8083-380 8084-380L8084-380Q8086-380 8087.500-381.500Q8089-383 8090-386L8090-386Q8104-410 8107-415Q8110-420 8107-416L8107-416Q8113-426 8119-426L8119-426Q8128-426 8137-423Q8146-420 8151.500-415Q8157-410 8157-405L8157-405Q8157-400 8150-380L8150-380L8038-83Q8025-49 8051-49L8051-49Q8069-49 8094.500-66.500Q8120-84 8139-109L8139-109Q8141-111 8143.500-112.500Q8146-114 8148-114L8148-114Q8152-114 8153.500-111.500Q8155-109 8155-103L8155-103Q8155-96 8141-75.500Q8127-55 8112-40L8112-40Q8084-14 8055.500 0Q8027 14 8003 14L8003 14Q7993 14 7983 8Q7973 2 7966.500-7Q7960-16 7960-25L7960-25Q7960-36 7966-48L7966-48Q7962-39 7965.500-48Q7969-57 7977.500-76Q7986-95 7996-116Q8006-137 8013-153L8013-153Q8018-164 8017.500-169.500Q8017-175 8011-168L8011-168Q7950-100 7906.500-60Q7863-20 7830-3Q7797 14 7767 14ZM7823-49L7823-49Q7845-49 7888.500-85.500Q7932-122 7987-187L7987-187Q8025-231 8047-268Q8069-305 8069-323L8069-323Q8069-331 8056-342L8056-342Q8050-347 8043-350Q8036-353 8031-353L8031-353Q8013-353 7981.500-335Q7950-317 7924-292L7924-292Q7891-260 7861-220Q7831-180 7812.500-143Q7794-106 7794-83L7794-83Q7794-68 7802-58.500Q7810-49 7823-49ZM8273 17L8273 17Q8268 17 8262 13.500Q8256 10 8252 4.500Q8248-1 8248-7L8248-7Q8248-19 8254.500-37.500Q8261-56 8271-84L8271-84L8363-324Q8368-337 8367.500-348Q8367-359 8357-359L8357-359Q8343-359 8329.500-355.500Q8316-352 8309-348L8309-348Q8303-344 8297.500-346.500Q8292-349 8292-356L8292-356Q8292-364 8299.500-374Q8307-384 8320-393L8320-393Q8332-402 8348.500-408Q8365-414 8383-414L8383-414Q8411-414 8418.500-400Q8426-386 8420.500-362.500Q8415-339 8403-309L8403-309L8358-196Q8354-189 8360.500-187Q8367-185 8370-190L8370-190Q8410-259 8450.500-310.500Q8491-362 8526-390.500Q8561-419 8584-419L8584-419Q8610-419 8620.500-404Q8631-389 8631-369L8631-369Q8631-351 8624.500-332Q8618-313 8606.500-300.500Q8595-288 8581-288L8581-288Q8573-288 8569-297.500Q8565-307 8565-323L8565-323Q8565-338 8561-346.500Q8557-355 8546-355L8546-355Q8536-355 8519.500-342Q8503-329 8478-297L8478-297Q8467-282 8449-256Q8431-230 8410.500-198.500Q8390-167 8370-134.500Q8350-102 8335-75L8335-75Q8308-27 8296.500-5Q8285 17 8273 17ZM8698 15L8698 15Q8677 15 8655.500-1Q8634-17 8620-41.500Q8606-66 8606-89L8606-89Q8606-139 8626.500-195.500Q8647-252 8683-301.500Q8719-351 8766.500-382.500Q8814-414 8867-414L8867-414Q8902-414 8921.500-399.500Q8941-385 8941-359L8941-359Q8941-328 8921.500-305Q8902-282 8869-265.500Q8836-249 8795.500-238Q8755-227 8713-219L8713-219Q8707-218 8703.500-216.500Q8700-215 8698-209L8698-209Q8691-187 8684-161Q8677-135 8677-112L8677-112Q8677-77 8690.500-58Q8704-39 8730-39L8730-39Q8766-39 8791-57Q8816-75 8832-93L8832-93Q8842-104 8850-104L8850-104Q8860-104 8860-94L8860-94Q8860-93 8860-90.500Q8860-88 8858-86L8858-86Q8838-53 8813-30.500Q8788-8 8759.500 3.500Q8731 15 8698 15ZM8720-242L8720-242Q8731-242 8757.500-248.500Q8784-255 8813-269.500Q8842-284 8862.500-305.500Q8883-327 8883-357L8883-357Q8883-370 8876-379.500Q8869-389 8856-389L8856-389Q8835-389 8810.500-371.500Q8786-354 8764-329.500Q8742-305 8727.500-282Q8713-259 8713-248L8713-248Q8713-242 8720-242Z"/></g>
</svg>
