<?xml version="1.0" encoding="UTF-8"?>
<svg xmlns="http://www.w3.org/2000/svg" version="1.1" width="1276" height="1040" viewBox="0 0 1276 1040">
<g transform="translate(-272.867,-1239.925) scale(3.21729)">
<path d="M331.519,567.413c5.645.712,9.124,3.589,9.856,8.613.441,2.988.11,6.146-.201,9.214-.261,2.446-1.855,4.271-3.73,5.715-1.965,1.544-4.231,1.915-6.647,1.915h-95.36c-2.436,0-4.682-.371-6.657-1.915-1.865-1.444-3.459-3.269-3.73-5.715-.311-3.068-.632-6.226-.191-9.214.712-5.023,4.221-7.901,9.856-8.613-27.833-20.013-42.06-47.063-40.717-82.847h40.466c.02.02.04.03.06.05l19.271,16.313c.2.17.411.321.622.461-.07.251-.13.511-.181.772l-4.492,24.835c-.441,2.476.461,4.993,2.376,6.607l19.271,16.313c1.283,1.083,2.898,1.654,4.532,1.654.802,0,1.604-.13,2.376-.411l23.752-8.532c2.366-.852,4.091-2.888,4.532-5.364l4.492-24.835c.05-.261.08-.531.09-.802,1.063-.231,2.075-.712,2.958-1.444l20.634-17.225c2.266-1.895,3.108-4.993,2.116-7.76l-.231-.632h35.593c1.344,35.784-12.884,62.835-40.717,82.847Z" fill="#666"/>
<polygon points="234.956 452.11 230.474 476.945 203.594 476.795 195.061 453.032 215.695 435.797 234.956 452.11" fill="#4c3661"/>
<polygon points="330.266 487.563 309.632 504.788 290.361 488.485 291.073 484.565 294.843 463.64 321.734 463.811 329.193 484.565 330.266 487.563" fill="#4c3661"/>
<polygon points="268.975 413.208 264.483 438.043 240.731 446.585 221.461 430.273 225.942 405.428 249.705 396.895 268.975 413.208" fill="#ae425f"/>
<polygon points="286.571 462.186 282.521 484.565 282.08 487.032 258.327 495.564 245.323 484.565 239.057 479.261 243.538 454.416 267.301 445.884 286.571 462.186" fill="#7d2f44"/>
<polygon points="304.168 511.175 299.686 536.02 275.923 544.553 256.653 528.25 261.145 503.405 284.897 494.872 304.168 511.175" fill="#ae425f"/>
</g>
<g transform="translate(-1176.812,-745.440) scale(3.05963)" fill="#231f20">
<path d="M433.568,498.41l-19.897,31.533-3.374-.069-20.379-31.326v39.106h-4.475v-48.745h3.787l22.789,35.32,22.375-35.32h3.511v48.745h-4.337v-39.244Z"/>
<path d="M494.151,488.978v4.613h-40.414v16.455h30.775v4.682h-30.775v18.245h40.275v4.682h-44.613v-48.676h44.751Z"/>
<path d="M505.509,488.909h22.375c7.779,0,17.074,1.721,22.1,8.262,3.58,4.613,4.613,10.741,4.613,16.179,0,16.799-9.432,24.304-26.713,24.304h-22.375v-48.745ZM509.846,533.041h18.038c6.541,0,14.596-1.309,18.589-6.403,2.892-3.786,3.58-8.743,3.58-13.356,0-4.682-.688-9.639-3.58-13.357-3.993-5.164-12.048-6.403-18.589-6.403h-18.038v39.52Z"/>
<path d="M565.954,488.909h27.883c9.501,0,19.484,1.102,19.484,12.875v1.997c0,11.291-9.363,12.737-18.451,12.874l19.483,20.999h-6.265l-19.416-20.999h-18.382l.138,20.999h-4.475v-48.745ZM595.146,511.973c5.783,0,12.668-.413,13.562-6.472.138-.826.138-1.583.138-2.341v-1.377c0-4.2-1.997-6.196-4.888-7.229-1.446-.482-3.099-.757-4.889-.826-1.79-.207-3.58-.207-5.37-.207h-23.408v18.451h24.854Z"/>
<path d="M678.585,513.35c0,17.35-9.707,24.441-27.401,24.441s-27.333-6.953-27.333-24.441,9.708-24.441,27.333-24.441c17.831,0,27.401,6.885,27.401,24.441ZM628.326,513.35c0,14.94,7.711,19.828,22.857,19.828s22.927-5.025,22.927-19.828c0-15.078-7.711-19.828-22.927-19.828s-22.857,4.819-22.857,19.828Z"/>
<path d="M715.347,537.584c-17.557,0-27.332-6.953-27.332-24.303s9.775-24.373,27.332-24.373c7.504,0,18.313,1.515,22.857,8.262l.207.275-3.236,3.167-.344-.482c-3.719-5.439-12.875-6.609-19.484-6.609-15.078,0-22.857,4.75-22.857,19.76s7.779,19.69,22.857,19.69c6.609,0,15.766-1.102,19.484-6.609l.344-.481,3.236,3.166-.207.345c-4.544,6.679-15.354,8.192-22.857,8.192Z"/>
<path d="M800.853,488.909l-43.787,22.926,42.342,25.818h-8.056l-37.178-22.513v22.513h-4.337v-48.745h4.337v19.691l37.315-19.553c.068-.069.207-.069.275-.069h.207c.068-.069.275-.069.412-.069h8.469Z"/>
</g>
<g transform="translate(-978.343,-1061.954) scale(3.22670)">
<path d="M337.913,629.74h9.785c3.402,0,7.466.752,9.664,3.612,1.566,2.018,2.017,4.696,2.017,7.075,0,7.346-4.125,10.627-11.681,10.627h-9.785v-21.314ZM339.81,649.038h7.888c2.86,0,6.382-.572,8.128-2.8,1.264-1.656,1.565-3.824,1.565-5.841,0-2.047-.301-4.215-1.565-5.841-1.746-2.258-5.269-2.8-8.128-2.8h-7.888v17.281Z" fill="#818284"/>
<path d="M389.208,629.771v2.017h-17.672v7.195h13.457v2.047h-13.457v7.979h17.612v2.047h-19.509v-21.284h19.569Z" fill="#818284"/>
<path d="M399.469,629.74h12.193c4.155,0,8.52.481,8.52,5.63v.873c0,4.937-4.094,5.569-8.068,5.629l8.52,9.183h-2.74l-8.49-9.183h-8.038l.06,9.183h-1.957v-21.314ZM412.234,639.825c2.529,0,5.539-.181,5.931-2.83.06-.361.06-.692.06-1.023v-.602c0-1.837-.873-2.71-2.137-3.161-.632-.211-1.355-.332-2.138-.361-.783-.091-1.565-.091-2.348-.091h-10.236v8.068h10.868Z" fill="#818284"/>
<path d="M451.969,633.895l-8.7,13.788-1.476-.03-8.911-13.697v17.1h-1.957v-21.314h1.656l9.965,15.444,9.784-15.444h1.536v21.314h-1.897v-17.16Z" fill="#818284"/>
<path d="M486.255,651.055l-4.576-8.038-10.688.03-4.576,8.008h-2.228l12.133-21.284,12.193,21.284h-2.258ZM472.075,641.12l8.52-.03-4.275-7.466-4.245,7.496Z" fill="#818284"/>
<path d="M489.984,629.74h21.165v2.017h-9.634v19.298h-1.927l.03-19.298h-9.634v-2.017Z" fill="#818284"/>
<path d="M539.925,640.428c0,7.586-4.245,10.688-11.981,10.688s-11.952-3.041-11.952-10.688,4.245-10.688,11.952-10.688c7.797,0,11.981,3.01,11.981,10.688ZM517.948,640.428c0,6.532,3.371,8.67,9.995,8.67s10.024-2.197,10.024-8.67c0-6.594-3.371-8.671-10.024-8.671s-9.995,2.107-9.995,8.671Z" fill="#818284"/>
<path d="M552.083,629.74v19.268h17.611v2.047h-19.508v-21.314h1.896Z" fill="#818284"/>
<path d="M599.736,640.428c0,7.586-4.245,10.688-11.982,10.688s-11.951-3.041-11.951-10.688,4.244-10.688,11.951-10.688c7.798,0,11.982,3.01,11.982,10.688ZM577.76,640.428c0,6.532,3.371,8.67,9.994,8.67s10.025-2.197,10.025-8.67c0-6.594-3.371-8.671-10.025-8.671s-9.994,2.107-9.994,8.671Z" fill="#818284"/>
<path d="M621.107,651.024c-7.707,0-11.952-3.04-11.952-10.657s4.305-10.627,11.952-10.627c3.281,0,8.008.662,9.994,3.612l.091.12-1.415,1.385-.15-.21c-1.626-2.379-5.63-2.891-8.52-2.891-6.594,0-9.995,2.077-9.995,8.641s3.401,8.61,9.995,8.61c2.739,0,6.021-.361,7.947-2.229v-5.75h-12.854v-2.047h14.992v8.309l-.091.151c-1.986,2.92-6.713,3.582-9.994,3.582Z" fill="#818284"/>
<path d="M641.484,629.74h2.619l8.64,9.212,8.61-9.212h2.59l-10.327,11.049v10.266h-1.866v-10.296l-10.266-11.019Z" fill="#818284"/>
</g>
</svg>
